<svg  width="1em" height="1em" viewBox="0 0 195.161 201.667">
  <g id="Group_55" data-name="Group 55" transform="translate(-157.919 -2812.917)">
    <path id="iconfinder_calendar-date-appontment-booking-reservation_2075803" d="M156.129,19.516V0H143.118V19.516H52.043V0H39.032V19.516H0v182.15H195.161V19.516ZM13.011,32.527H39.032V52.043H52.043V32.527h91.075V52.043h13.011V32.527H182.15V84.57H13.011ZM182.15,188.656H13.011V97.581H182.15Z" transform="translate(157.919 2812.917)"/>
    <path id="Path_324" data-name="Path 324" d="M58.693,10.621l-12.27,12.27.02.018L29.715,39.638,15.338,25.263l-4.66,4.662,16.48,16.48-.017.016,2.527,2.527.016-.016.016.016,1.127-1.127.011.011L51.1,27.569,63.37,15.3Z" transform="translate(225.297 2923.258)" fill="#241f20"/>
    <path id="Path_325" data-name="Path 325" d="M19.217,34.978,4.842,20.6.18,25.264,16.66,41.743l-.017.017,2.529,2.527.016-.016.014.016,1.127-1.127.011.01L23.9,39.61l-4.658-4.656Z" transform="translate(220.973 2927.369)" fill="#241f20"/>
    <path id="Path_326" data-name="Path 326" d="M25.412,33.9l6.719-6.719L44.4,14.909l-4.677-4.677L27.454,22.5l.02.02-6.72,6.717Z" transform="translate(229.446 2923.098)" fill="#241f20"/>
  </g>
</svg>
