<?xml version="1.0" ?><svg data-name="Layer 1" id="Layer_1" viewBox="0 0 32 32" xmlns="http://www.w3.org/2000/svg"><path d="M30,8V20a3,3,0,0,1-3,3H23.2l-1.56-2H27a1,1,0,0,0,1-1V8a1,1,0,0,0-1-1H5A1,1,0,0,0,4,8V20a1,1,0,0,0,1,1h5.36L8.8,23H5a3,3,0,0,1-3-3V8A3,3,0,0,1,5,5H27A3,3,0,0,1,30,8Z"/><path d="M24,26.26a1.42,1.42,0,0,0,0-.2s0,0,0-.06,0-.08,0-.12a1.42,1.42,0,0,0,0-.2,1,1,0,0,0-.1-.18s0-.08-.05-.11l-7-9a.81.81,0,0,0-.1-.09.65.65,0,0,0-.08-.09l-.06,0-.18-.09a.64.64,0,0,0-.18-.06h-.38a.64.64,0,0,0-.18.06.76.76,0,0,0-.18.09l-.06,0a.65.65,0,0,0-.08.09.81.81,0,0,0-.1.09l-7,9s0,.07-.05.11a1,1,0,0,0-.1.18,1.42,1.42,0,0,0,0,.2S8,26,8,26s0,0,0,.06a1.42,1.42,0,0,0,0,.2,1.27,1.27,0,0,0,.06.18.71.71,0,0,0,.1.14.54.54,0,0,0,.14.16.1.1,0,0,0,0,.05l.14.08.11.06A1.15,1.15,0,0,0,9,27H23a1.15,1.15,0,0,0,.36-.07l.11-.06.14-.08a.1.1,0,0,0,0-.05.54.54,0,0,0,.14-.16.71.71,0,0,0,.1-.14A1.27,1.27,0,0,0,24,26.26ZM16,18.63,21,25h-9.9Z"/></svg>