<svg width="1em" height="1em" viewBox="0 0 176.001 159.064">
  <g id="Group_56" data-name="Group 56" transform="translate(-595 -3727.251)">
    <path id="Path_344" data-name="Path 344" d="M29.074,135.042a4.073,4.073,0,0,0,4.074-4.074V47.954a7.585,7.585,0,0,1,7.566-7.588H196.925a4.074,4.074,0,0,0,0-8.148H40.713A15.741,15.741,0,0,0,25,47.954v83.014A4.074,4.074,0,0,0,29.074,135.042Z" transform="translate(570 3695.033)"/>
    <path id="Path_345" data-name="Path 345" d="M196.926,54.44a4.073,4.073,0,0,0-4.074,4.074v83.014a7.585,7.585,0,0,1-7.564,7.588h-84.51c-.083,0-.161.02-.242.025a4.024,4.024,0,0,0-.542.055c-.137.027-.265.075-.4.115s-.245.065-.365.114a4.123,4.123,0,0,0-.509.268c-.063.036-.13.06-.191.1l-.029.019s0,0,0,0L59.223,175.78V153.192a4.073,4.073,0,0,0-4.074-4.074H29.074a4.074,4.074,0,1,0,0,8.148h22v26.09a4.075,4.075,0,0,0,6.322,3.4L102,157.265h83.284A15.742,15.742,0,0,0,201,141.529V58.514A4.075,4.075,0,0,0,196.926,54.44Z" transform="translate(570 3698.885)"/>
    <path id="path3267" d="M135.453,69.375v7.172c-2.9,0-15.959,3.7-15.959,15.552,0,10.546,9.422,13.416,15.952,14.359l.007,11.917c-4.768-1.361-5.634-5.03-6.3-8.062H118.688c.648,11.86,11.065,17.376,16.765,18.214v7.3h9.952v-7.186c7.878-.419,17.207-7.221,17.207-16.545,0-10.679-9.293-13.71-17.207-14.524V86.644c3.114.221,5.544,3.31,5.807,6.455h10.365c0-10.593-9.638-16.166-16.276-16.552V69.375Zm.055,17.373V95.8C128.493,95.692,128.357,88,135.509,86.748Zm10.014,21.414c8.681.221,9.643,8.884-.014,10.269Z" transform="translate(545.353 3689.39)"/>
  </g>
</svg>
